<mxfile host="65bd71144e">
    <diagram id="ffboHtNIQQNh704SeMcM" name="Page-1">
        <mxGraphModel dx="606" dy="579" grid="1" gridSize="10" guides="1" tooltips="1" connect="1" arrows="1" fold="1" page="1" pageScale="1" pageWidth="827" pageHeight="1169" math="0" shadow="0">
            <root>
                <mxCell id="0"/>
                <mxCell id="1" parent="0"/>
                <mxCell id="2" value="Titus Diceman&amp;nbsp;&lt;br&gt;TEJ3M&lt;br&gt;Unit-4-10&lt;br&gt;&lt;br&gt;AND Gate with chip&lt;br&gt;&lt;br&gt;A l B l Output&lt;br&gt;---------------&lt;br&gt;0 l 0 l 0&lt;br&gt;1 l 0 l 0&lt;br&gt;0 l 1 l 0&lt;br&gt;1 l 1 l 1&amp;nbsp;" style="text;html=1;align=left;verticalAlign=middle;resizable=0;points=[];autosize=1;strokeColor=none;fillColor=none;" parent="1" vertex="1">
                    <mxGeometry x="30" y="155" width="130" height="190" as="geometry"/>
                </mxCell>
                <mxCell id="10" style="edgeStyle=none;shape=connector;rounded=0;html=1;exitX=1;exitY=0.12;exitDx=0;exitDy=0;labelBackgroundColor=default;strokeColor=default;fontFamily=Helvetica;fontSize=11;fontColor=default;endArrow=oval;endFill=1;" parent="1" source="5" edge="1">
                    <mxGeometry relative="1" as="geometry">
                        <mxPoint x="520" y="167" as="targetPoint"/>
                    </mxGeometry>
                </mxCell>
                <mxCell id="11" style="edgeStyle=none;shape=connector;rounded=0;html=1;exitX=1;exitY=0.88;exitDx=0;exitDy=0;labelBackgroundColor=default;strokeColor=default;fontFamily=Helvetica;fontSize=11;fontColor=default;endArrow=oval;endFill=1;" parent="1" source="5" edge="1">
                    <mxGeometry relative="1" as="geometry">
                        <mxPoint x="427.58823529411757" y="360" as="targetPoint"/>
                    </mxGeometry>
                </mxCell>
                <mxCell id="31" style="edgeStyle=none;html=1;exitX=0;exitY=0.5;exitDx=0;exitDy=0;endArrow=none;endFill=0;rounded=0;entryX=0;entryY=0.25;entryDx=0;entryDy=0;entryPerimeter=0;" parent="1" source="5" target="36" edge="1">
                    <mxGeometry relative="1" as="geometry">
                        <Array as="points">
                            <mxPoint x="225" y="177"/>
                        </Array>
                        <mxPoint x="240" y="210" as="targetPoint"/>
                    </mxGeometry>
                </mxCell>
                <mxCell id="5" value="" style="shape=mxgraph.electrical.electro-mechanical.twoWaySwitch;aspect=fixed;elSwitchState=2;fontFamily=Helvetica;fontSize=11;fontColor=default;" parent="1" vertex="1">
                    <mxGeometry x="352.95" y="164" width="75" height="26" as="geometry"/>
                </mxCell>
                <mxCell id="6" value="LED 1" style="verticalLabelPosition=bottom;shadow=0;dashed=0;align=center;html=1;verticalAlign=top;shape=mxgraph.electrical.opto_electronics.led_2;pointerEvents=1;fontFamily=Helvetica;fontSize=11;fontColor=default;" parent="1" vertex="1">
                    <mxGeometry x="210" y="320" width="100" height="70" as="geometry"/>
                </mxCell>
                <mxCell id="7" value="" style="pointerEvents=1;verticalLabelPosition=bottom;shadow=0;dashed=0;align=center;html=1;verticalAlign=top;shape=mxgraph.electrical.miscellaneous.batteryStack;fontFamily=Helvetica;fontSize=11;fontColor=default;direction=north;" parent="1" vertex="1">
                    <mxGeometry x="490" y="180" width="60" height="100" as="geometry"/>
                </mxCell>
                <mxCell id="19" style="edgeStyle=none;shape=connector;rounded=0;html=1;exitX=1;exitY=0.5;exitDx=0;exitDy=0;exitPerimeter=0;labelBackgroundColor=default;strokeColor=default;fontFamily=Helvetica;fontSize=11;fontColor=default;endArrow=none;endFill=0;entryX=0;entryY=0.5;entryDx=0;entryDy=0;" parent="1" source="18" target="7" edge="1">
                    <mxGeometry relative="1" as="geometry">
                        <mxPoint x="490" y="360.17647058823536" as="targetPoint"/>
                        <Array as="points">
                            <mxPoint x="480" y="360"/>
                            <mxPoint x="520" y="360"/>
                        </Array>
                    </mxGeometry>
                </mxCell>
                <mxCell id="18" value="220&amp;nbsp;Î©" style="pointerEvents=1;verticalLabelPosition=bottom;shadow=0;dashed=0;align=center;html=1;verticalAlign=top;shape=mxgraph.electrical.resistors.resistor_2;fontFamily=Helvetica;fontSize=11;fontColor=default;" parent="1" vertex="1">
                    <mxGeometry x="293" y="350" width="100" height="20" as="geometry"/>
                </mxCell>
                <mxCell id="20" value="-" style="text;html=1;align=center;verticalAlign=middle;resizable=0;points=[];autosize=1;strokeColor=none;fillColor=none;fontSize=11;fontFamily=Helvetica;fontColor=default;" parent="1" vertex="1">
                    <mxGeometry x="540" y="250" width="30" height="30" as="geometry"/>
                </mxCell>
                <mxCell id="21" value="+" style="text;html=1;align=center;verticalAlign=middle;resizable=0;points=[];autosize=1;strokeColor=none;fillColor=none;fontSize=11;fontFamily=Helvetica;fontColor=default;" parent="1" vertex="1">
                    <mxGeometry x="540" y="180" width="30" height="30" as="geometry"/>
                </mxCell>
                <mxCell id="22" value="5 V" style="text;html=1;align=center;verticalAlign=middle;resizable=0;points=[];autosize=1;strokeColor=none;fillColor=none;fontSize=11;fontFamily=Helvetica;fontColor=default;" parent="1" vertex="1">
                    <mxGeometry x="540" y="210" width="40" height="30" as="geometry"/>
                </mxCell>
                <mxCell id="24" value="Input A" style="text;html=1;align=center;verticalAlign=middle;resizable=0;points=[];autosize=1;strokeColor=none;fillColor=none;fontSize=11;fontFamily=Helvetica;fontColor=default;" parent="1" vertex="1">
                    <mxGeometry x="360.45" y="185" width="60" height="30" as="geometry"/>
                </mxCell>
                <mxCell id="29" style="edgeStyle=none;html=1;exitX=1;exitY=0.5;exitDx=0;exitDy=0;exitPerimeter=0;entryX=0;entryY=0.57;entryDx=0;entryDy=0;entryPerimeter=0;endArrow=none;endFill=0;" parent="1" target="6" edge="1">
                    <mxGeometry relative="1" as="geometry">
                        <mxPoint x="210" y="300" as="sourcePoint"/>
                    </mxGeometry>
                </mxCell>
                <mxCell id="34" style="edgeStyle=none;rounded=0;html=1;exitX=1;exitY=0.12;exitDx=0;exitDy=0;entryX=1;entryY=0.5;entryDx=0;entryDy=0;endArrow=none;endFill=0;" edge="1" parent="1" source="33" target="7">
                    <mxGeometry relative="1" as="geometry">
                        <mxPoint x="530" y="103" as="targetPoint"/>
                        <Array as="points">
                            <mxPoint x="520" y="103"/>
                        </Array>
                    </mxGeometry>
                </mxCell>
                <mxCell id="35" style="edgeStyle=none;rounded=0;html=1;exitX=1;exitY=0.88;exitDx=0;exitDy=0;endArrow=oval;endFill=1;" edge="1" parent="1" source="33">
                    <mxGeometry relative="1" as="geometry">
                        <mxPoint x="430" y="290" as="targetPoint"/>
                        <Array as="points">
                            <mxPoint x="470" y="123"/>
                            <mxPoint x="470" y="290"/>
                            <mxPoint x="430" y="290"/>
                        </Array>
                    </mxGeometry>
                </mxCell>
                <mxCell id="33" value="" style="shape=mxgraph.electrical.electro-mechanical.twoWaySwitch;aspect=fixed;elSwitchState=2;fontFamily=Helvetica;fontSize=11;fontColor=default;" vertex="1" parent="1">
                    <mxGeometry x="360.45" y="100" width="75" height="26" as="geometry"/>
                </mxCell>
                <mxCell id="38" style="edgeStyle=none;rounded=0;html=1;exitX=0;exitY=0.75;exitDx=0;exitDy=0;exitPerimeter=0;entryX=0;entryY=0.5;entryDx=0;entryDy=0;endArrow=none;endFill=0;" edge="1" parent="1" source="36" target="33">
                    <mxGeometry relative="1" as="geometry">
                        <Array as="points">
                            <mxPoint x="195" y="113"/>
                        </Array>
                    </mxGeometry>
                </mxCell>
                <mxCell id="36" value="" style="verticalLabelPosition=bottom;shadow=0;dashed=0;align=center;html=1;verticalAlign=top;shape=mxgraph.electrical.logic_gates.logic_gate;operation=and;direction=south;" vertex="1" parent="1">
                    <mxGeometry x="180" y="200" width="60" height="100" as="geometry"/>
                </mxCell>
                <mxCell id="39" value="Input B" style="text;html=1;align=center;verticalAlign=middle;resizable=0;points=[];autosize=1;strokeColor=none;fillColor=none;" vertex="1" parent="1">
                    <mxGeometry x="360" y="115" width="60" height="30" as="geometry"/>
                </mxCell>
            </root>
        </mxGraphModel>
    </diagram>
</mxfile>